<?xml version="1.0" encoding="UTF-8" standalone="no"?>
<svg
   xmlns:dc="http://purl.org/dc/elements/1.1/"
   xmlns:cc="http://creativecommons.org/ns#"
   xmlns:rdf="http://www.w3.org/1999/02/22-rdf-syntax-ns#"
   xmlns:svg="http://www.w3.org/2000/svg"
   xmlns="http://www.w3.org/2000/svg"
   viewBox="0 0 520.93628 520.93799"
   height="520.93799"
   width="520.93628"
   xml:space="preserve"
   id="svg2"
   version="1.1"><metadata
     id="metadata8"><rdf:RDF><cc:Work
         rdf:about=""><dc:format>image/svg+xml</dc:format><dc:type
           rdf:resource="http://purl.org/dc/dcmitype/StillImage" /><dc:title></dc:title></cc:Work></rdf:RDF></metadata><defs
     id="defs6"><clipPath
       id="clipPath34"
       clipPathUnits="userSpaceOnUse"><path
         id="path32"
         d="M 0,396 H 396 V 0 H 0 Z" /></clipPath><clipPath
       id="clipPath258"
       clipPathUnits="userSpaceOnUse"><path
         id="path256"
         d="M 0,396 H 396 V 0 H 0 Z" /></clipPath></defs><g
     transform="matrix(1.3333333,0,0,-1.3333333,-7.1181568,529.83902)"
     id="g10"><g
       transform="matrix(1.2850075,0,0,1.2850075,200.68972,9.4016815)"
       id="g12"><path
         id="path14"
         style="fill:#306db7;fill-opacity:1;fill-rule:nonzero;stroke:none"
         d="M 0,0 -149.902,149.902 0,299.805 149.902,149.902 Z" /></g><g
       transform="matrix(1.2850075,0,0,1.2850075,392.79834,201.1338)"
       id="g16"><path
         id="path18"
         style="fill:#4a9fdd;fill-opacity:1;fill-rule:nonzero;stroke:none"
         d="m 0,0 -225.334,74.334 -5.715,-5.506 81.549,-218.035 z" /></g><g
       transform="matrix(1.2850075,0,0,1.2850075,392.79834,201.1338)"
       id="g20"><path
         id="path22"
         style="fill:#4a9fdd;fill-opacity:1;fill-rule:nonzero;stroke:none"
         d="m 0,0 -225.334,74.334 -5.715,-5.506 81.549,-218.035 z" /></g><g
       transform="matrix(1.2850075,0,0,1.2850075,200.68972,9.4016815)"
       id="g24"><path
         id="path26"
         style="fill:none;stroke:#4a9fdd;stroke-width:3;stroke-linecap:butt;stroke-linejoin:miter;stroke-miterlimit:4;stroke-dasharray:none;stroke-opacity:1"
         d="M 0,0 -149.902,149.902 0,299.805 149.902,149.902 Z" /></g><g
       transform="matrix(1.2850075,0,0,1.2850075,-77.514419,-57.579336)"
       id="g28"><g
         clip-path="url(#clipPath34)"
         id="g30"><g
           transform="translate(329.9062,164.4248)"
           id="g36"><path
             id="path38"
             style="fill:#93cb62;fill-opacity:1;fill-rule:nonzero;stroke:none"
             d="m 0,0 c 0.008,0 0.125,-0.096 0.066,-0.097 0.036,0.008 0.071,0.014 0.102,0.02 C 0.197,-0.108 0.209,-0.144 0.193,-0.188 0.023,-0.229 0.023,-0.002 0,0 m -8.133,7.232 c -0.029,0.012 -0.074,0.005 -0.144,-0.039 0.117,0.073 0.242,0.121 0.144,0.039 m -45.462,-45.085 c -0.005,0 -0.009,-10e-4 -0.013,-10e-4 0.114,0.116 0.06,0.068 0.013,10e-4 m 79.443,49.207 c 0.062,0.009 -0.352,-0.196 -0.256,0 -3.504,-0.591 -9.121,-2.122 -11.721,-3.033 4.295,3.928 10.459,10.792 8.6,16.718 C 22.41,25.023 22.34,25.036 22.258,25.106 19.59,21.252 16.066,16.621 11.49,13.7 c 0.115,0.285 0.209,0.639 -0.326,0.48 1.469,2.976 1.453,6.802 0.291,10.049 -0.377,-0.618 -0.365,-0.512 -0.56,-0.34 C 7.168,13.563 7.779,8.956 -2.117,6.617 -1.574,7.522 -1.209,8.475 -1.104,9.461 -1.254,9.406 -1.225,9.373 -1.227,9.448 -3.33,8.668 -5.895,8.428 -8.189,6.931 c 0.078,0.062 0.134,0.257 0.06,0.298 5.027,3.352 10.74,7.752 12.703,13.526 C 4.512,20.729 4.375,20.749 4.338,20.826 4.289,20.704 4.111,20.486 4.102,20.81 c -3.684,-1.839 -7.03,-4.241 -9.268,-7.291 3.426,6.347 3.629,18.667 -4.445,22.372 0,0 0.002,0.006 0.002,0.011 L -9.613,35.9 c 0,-0.003 -0.002,-0.006 -0.002,-0.006 -0.002,-10e-4 -0.002,0 -0.004,0 l 0.002,0.002 c 0,0 -0.002,-10e-4 -0.004,-10e-4 -0.025,0.011 -0.047,0.027 -0.072,0.04 0.027,-0.037 0.041,-0.044 0.056,-0.057 -0.134,-0.108 -0.547,-0.309 -0.486,-0.305 0.385,-1.35 1.75,-3.917 1.801,-5.099 0.213,-4.999 2.168,-7.998 0.242,-14.086 -2.315,-7.321 -14.17,-18.386 -20.103,-23.772 4.636,8.96 14.564,26.632 7.596,33.314 0.001,-0.017 -0.075,-0.059 -0.116,-0.019 0.013,-0.11 -0.383,-0.186 -0.442,-0.15 1.859,-6.039 -1.675,-16.04 -4,-22.204 0.808,6.767 -1.3,21.234 -11.18,20.292 0.018,-0.164 0.018,-0.297 -0.227,-0.372 0.017,-0.057 0.033,-0.085 0.05,-0.1 -0.016,-0.003 -0.023,0 -0.052,-0.013 0.683,-1.97 5.614,-6.484 5.898,-8.162 2.346,-13.933 2.57,-20.144 -8.158,-32.964 -2.474,-1.159 -4.56,-4.04 -6.612,-5.637 -1.723,-1.341 -4.267,-3.453 -5.954,-5.044 0.982,8.038 -0.455,9.328 2.648,14.31 3.447,5.538 11.425,5.939 13.677,12.791 -0.273,-0.049 -0.256,0.054 -0.206,0.113 -2.309,-0.481 -3.733,0.212 -6.502,-1.601 2.706,3.571 4.965,8.574 4.95,12.641 -4.478,-4.104 -8.191,-9.611 -11.151,-14.941 4.095,10.368 6.08,22.626 1.304,33.241 0.003,0.003 -1.368,0.096 -1.371,0.098 -4.305,-6.694 -0.912,-14.951 -1.511,-22.993 0.003,-0.004 -1.778,-2.157 -1.781,-2.172 -4.337,6.819 -1.251,18.155 -8.359,23.94 -0.16,-0.088 -0.196,-0.118 -0.11,-0.087 -2.592,-3.851 -1.556,-8.055 -0.699,-12.597 1.57,-8.309 7.928,-14.033 7.553,-22.364 -0.404,-8.93 -0.255,-16.681 -3.782,-24.114 -4.599,-5.123 -8.985,-10.893 -13.04,-16.783 6.053,11.333 14.089,27.191 8.908,35.83 -0.06,-0.126 -0.363,-0.144 -0.474,-0.106 -0.608,-2.388 -1.61,-4.433 -1.954,-7.309 0.004,-0.016 0.006,-0.058 -0.005,-0.137 -0.001,0.021 -0.007,0.039 -0.008,0.063 -0.002,-0.024 -0.006,-0.046 -0.009,-0.069 0,0.046 0.002,0.082 0.005,0.108 -0.347,7.024 -7.448,13.358 -15.09,14.356 -0.011,-0.26 -0.65,-0.766 -0.907,-0.837 0.097,-0.124 0.251,-0.34 0.015,-0.497 2.816,-2.788 4.715,-5.963 6.621,-9.319 6.961,-12.234 3.782,-25.543 -1.097,-37.703 -5.893,-9.242 -8.459,-16.427 -9.731,-22.523 0,0.031 -1.865,0.163 -1.947,0.028 2.242,-2.537 1.473,0.611 2.019,-2.773 0.009,0.01 7.294,6.416 7.292,6.44 2.187,5.031 -2.474,-3.157 0.03,1.738 4.855,9.494 15.388,26.582 23.2,28.899 10.778,3.194 5.023,-11.962 5.878,-19.824 -0.052,-3.101 2.634,-0.626 3.014,-0.524 3.013,3.489 4.921,7.81 4.284,12.6 0.005,-0.003 0.355,-0.116 0.351,-0.048 3.441,-4.194 8.743,-9.117 10.616,-14.675 0.022,0.03 0.447,0.039 0.483,0.008 0.002,0.084 0.1,0.582 0.328,0.368 0.335,8.208 -5.056,22.45 -14.059,25.73 0.017,0.074 0.042,0.126 0.071,0.147 0.009,-0.015 0.077,-0.028 0.151,-0.034 -0.023,-0.025 0.094,-0.022 0.149,0 0.047,0.004 0.063,0.019 -0.012,0.049 -0.003,0 -0.003,-0.002 -0.005,-0.002 0,0 0,0.002 -0.002,0.002 12.724,2.909 18.518,-10.03 21.953,-19.058 0.092,0.095 0.463,-0.14 0.479,-0.168 2.246,4.23 0.713,8.774 -1.087,12.872 7.271,1.692 12.189,-7.976 16.173,-12.147 0.148,0.065 0.184,0.183 0.379,0.018 12.238,6.61 -11.606,19.915 -17.982,21.361 0.239,0.125 0.074,0.336 -0.243,0.451 5.844,1.397 12.112,-0.098 18.149,-0.153 0.138,0.644 -0.25,0.339 0.484,0.588 -0.269,2.23 -0.976,3.816 -3.154,5.183 -8.918,5.589 -15.616,-3.136 -23.141,-4.951 -7.458,-1.8 -15.62,-0.699 -23.731,-2.816 2.943,3.22 6.018,6.385 9.381,9.238 14.423,12.244 29.823,8.859 46.227,0.831 0.483,5.626 -7.123,10.78 -12.769,12.932 0.043,0.038 0.013,0.084 -0.2,0.147 3.637,0.505 8.719,-0.071 12.407,-0.442 -0.018,0.023 3.871,0.623 4.121,0.65 -7.026,6.203 -26.052,2.12 -35.714,-1.415 0.614,0.413 -0.91,1.54 -0.285,1.908 31.079,18.312 41.696,4.574 47.43,7.043 0.02,0.07 0.448,0.042 1.409,1.503 -0.063,0.397 -2.217,-0.178 -1.977,-0.141 C 12.252,1.427 4.639,1.386 0.455,-0.023 2.986,6.826 17.293,-0.549 25.848,11.354 m -3.104,14.048 c -0.014,-0.016 -0.041,-0.101 -0.09,-0.183 0.192,-0.106 0.307,-0.475 0.09,0.183 m -0.09,-0.183 c -0.068,0.037 -0.142,0.042 -0.217,-0.048 0.014,-0.044 0.02,-0.088 0.034,-0.132 0.078,0.023 0.14,0.1 0.183,0.18 M 4.328,20.891 c -0.008,-0.028 0.002,-0.045 0.01,-0.065 0.021,0.048 0.021,0.081 -0.01,0.065 M -9.578,35.93 c -0.014,0.006 -0.022,-10e-4 -0.029,-0.01 0.002,-0.012 -0.002,-0.009 -0.002,-0.018 0.005,0.009 0.029,0.023 0.031,0.028 m -0.031,-0.013 c -0.004,-0.008 -0.008,-0.015 -0.008,-0.021 0,0 0.002,0.002 0.004,0.004 0,0 0.002,0.007 0.004,0.017 m 0.002,0.007 c 0,-0.005 0,-0.004 -0.002,-0.007 0.002,10e-4 0.002,0.002 0.002,0.002 z M -36.809,9.899 c 0.002,-0.03 -0.004,-0.06 -0.004,-0.088 0.022,0.02 0.044,0.043 0.067,0.065 -0.023,0.018 -0.049,0.038 -0.063,0.023 m 0.147,0.055 c -0.028,-0.023 -0.054,-0.053 -0.084,-0.078 0.041,-0.027 0.079,-0.051 0.084,0.078 m 1.401,-11.183 c 0.023,0.004 0.04,0.008 0.062,0.011 0.012,0.05 -0.032,0.028 -0.062,-0.011 M -63.28,-20.546 c -0.006,0.013 -0.012,0.006 -0.017,-0.035 0,-0.013 0.004,-0.026 0.004,-0.039 0.003,0.025 0.01,0.048 0.013,0.074 m 2.002,7.48 c -0.01,-0.038 -0.024,-0.076 -0.03,-0.114 0.092,0.016 0.24,-0.108 0.03,0.114 m -0.089,-0.159 c 0.005,-0.006 0.028,-0.007 0.041,-0.012 0.006,0.019 0.011,0.039 0.018,0.057 -0.025,-0.004 -0.052,-0.011 -0.059,-0.045" /></g><g
           transform="translate(294.4141,186.8662)"
           id="g40"><path
             id="path42"
             style="fill:#e9f096;fill-opacity:1;fill-rule:nonzero;stroke:none"
             d="m 0,0 c 7.988,-1.636 9.557,-11.371 10.182,-18.195 0.027,-0.289 0.488,-0.286 0.48,0.012 C 10.468,-10.521 9.26,-0.135 0.105,1.473 -0.791,1.63 -0.837,0.172 0,0" /></g><g
           transform="translate(269.7822,188.9307)"
           id="g44"><path
             id="path46"
             style="fill:#e9f096;fill-opacity:1;fill-rule:nonzero;stroke:none"
             d="m 0,0 c 4.497,-2.03 3.891,-7.706 4.351,-11.839 0.417,-3.743 1.98,-6.848 4.267,-9.791 0.217,-0.278 0.534,0.075 0.365,0.336 -3.186,4.92 -3.748,9.14 -4.051,14.859 C 4.753,-3.067 3.528,-0.269 0.373,1.148 -0.333,1.466 -0.653,0.295 0,0" /></g><g
           transform="translate(280.9375,192.3096)"
           id="g48"><path
             id="path50"
             style="fill:#e9f096;fill-opacity:1;fill-rule:nonzero;stroke:none"
             d="m 0,0 c -1.283,-3.343 -2.057,-6.812 -1.797,-10.419 0.294,-4.059 1.449,-8.139 0.897,-12.211 -0.051,-0.377 0.545,-0.571 0.636,-0.169 0.581,2.558 0.375,5.078 0.09,7.664 -0.57,5.142 -0.529,9.741 1.358,14.639 C 1.482,0.28 0.318,0.831 0,0" /></g><g
           transform="translate(351.9346,188.7354)"
           id="g52"><path
             id="path54"
             style="fill:#e9f096;fill-opacity:1;fill-rule:nonzero;stroke:none"
             d="m 0,0 c -5.016,-7.32 -10.748,-13.439 -18.423,-17.983 -3.799,-2.249 -7.908,-3.72 -12.027,-5.247 -4.466,-1.657 -8.537,-4.298 -12.756,-6.482 -0.146,-0.076 -0.043,-0.322 0.115,-0.256 5.475,2.321 10.508,5.022 16.204,6.869 4.113,1.334 7.95,2.955 11.652,5.207 6.831,4.156 11.931,10.516 16.216,17.134 C 1.396,-0.117 0.471,0.687 0,0" /></g><g
           transform="translate(295.4121,149.9492)"
           id="g56"><path
             id="path58"
             style="fill:#e9f096;fill-opacity:1;fill-rule:nonzero;stroke:none"
             d="m 0,0 c -11.059,-6.679 -20.351,-16.61 -28.318,-26.697 -4.716,-5.969 -8.791,-12.416 -12.895,-18.811 -2.491,-3.881 -6.529,-8.921 -6.344,-13.76 0.024,-0.601 0.887,-1.028 1.094,-0.29 1.451,5.199 5.106,9.686 7.981,14.183 3.464,5.42 6.829,10.899 10.603,16.113 4.035,5.575 8.859,10.556 13.531,15.592 4.453,4.797 9.092,9.542 14.563,13.188 C 0.467,-0.314 0.28,0.169 0,0" /></g><g
           transform="translate(252.0293,156.3164)"
           id="g60"><path
             id="path62"
             style="fill:#e9f096;fill-opacity:1;fill-rule:nonzero;stroke:none"
             d="m 0,0 c 6.847,0.061 11.707,-5.372 11.87,-12.002 0.006,-0.245 0.364,-0.416 0.443,-0.117 C 14.23,-4.908 6.733,1.32 0.092,1.27 -0.685,1.264 -0.744,-0.007 0,0" /></g><g
           transform="translate(277.1035,125.7012)"
           id="g64"><path
             id="path66"
             style="fill:#e9f096;fill-opacity:1;fill-rule:nonzero;stroke:none"
             d="m 0,0 c 6.461,2.576 13.998,2.443 20.838,3.066 7.394,0.674 13.489,6.159 21.021,7.018 0.36,0.041 0.319,0.666 -0.035,0.68 C 33.836,11.069 28.225,5.026 20.666,4.041 13.666,3.128 6.247,3.582 -0.424,0.951 -0.991,0.727 -0.591,-0.235 0,0" /></g><g
           transform="translate(307.8535,128.5322)"
           id="g68"><path
             id="path70"
             style="fill:#e9f096;fill-opacity:1;fill-rule:nonzero;stroke:none"
             d="m 0,0 c 3.303,-1.692 28.686,-14.699 17.975,-20.828 -0.681,-0.39 -0.383,-1.814 0.47,-1.537 5.404,1.746 4.28,6.654 1.589,10.475 C 15.463,-5.396 7,-2.781 0.16,0.494 -0.143,0.639 -0.271,0.139 0,0" /></g><g
           transform="translate(309.1406,118.665)"
           id="g72"><path
             id="path74"
             style="fill:#e9f096;fill-opacity:1;fill-rule:nonzero;stroke:none"
             d="M 0,0 C 2.346,-2.501 3.371,-8.184 1.662,-11.232 1.46,-11.594 1.922,-12.22 2.257,-11.825 4.966,-8.633 3.627,-2.011 0.932,0.861 0.333,1.5 -0.564,0.601 0,0" /></g><g
           transform="translate(295.0967,146.4707)"
           id="g76"><path
             id="path78"
             style="fill:#e9f096;fill-opacity:1;fill-rule:nonzero;stroke:none"
             d="m 0,0 c 12.015,4.266 34.07,4.771 36.716,-11.766 0.047,-0.298 0.507,-0.307 0.508,0.014 C 37.267,6.855 11.399,4.872 -0.107,0.24 -0.253,0.182 -0.149,-0.054 0,0" /></g><g
           transform="translate(268.1758,148.9893)"
           id="g80"><path
             id="path82"
             style="fill:#e9f096;fill-opacity:1;fill-rule:nonzero;stroke:none"
             d="m 0,0 c -0.057,-1.598 -0.439,-3.165 -0.699,-4.736 -0.283,-1.719 -0.571,-3.825 -1.462,-5.358 -0.087,-0.15 0.098,-0.397 0.244,-0.244 2.274,2.394 3.146,6.983 3.282,10.174 C 1.405,0.765 0.034,0.972 0,0" /></g><g
           transform="translate(314.0918,168.7881)"
           id="g84"><path
             id="path86"
             style="fill:#e9f096;fill-opacity:1;fill-rule:nonzero;stroke:none"
             d="m 0,0 c -3.821,-4.447 -8.315,-8.029 -12.803,-11.764 -4.865,-4.049 -8.494,-9.343 -13.388,-13.385 -0.212,-0.175 0.022,-0.622 0.275,-0.459 4.857,3.132 8.479,7.485 12.576,11.497 4.61,4.513 9.694,8.479 13.875,13.425 C 0.863,-0.298 0.361,0.423 0,0" /></g><g
           transform="translate(320.2949,198.8037)"
           id="g88"><path
             id="path90"
             style="fill:#e9f096;fill-opacity:1;fill-rule:nonzero;stroke:none"
             d="m 0,0 c 3.969,-10.049 2.115,-21.981 -5.689,-29.589 -0.137,-0.133 0.035,-0.379 0.197,-0.252 C 3.381,-22.905 5.406,-9.612 0.051,0.025 0.031,0.061 -0.016,0.036 0,0" /></g><g
           transform="translate(292.0781,174.1221)"
           id="g92"><path
             id="path94"
             style="fill:#e9f096;fill-opacity:1;fill-rule:nonzero;stroke:none"
             d="m 0,0 c -4.137,-3.655 -8.592,-9.298 -9.828,-14.77 -0.039,-0.168 0.177,-0.359 0.29,-0.169 1.329,2.218 2.358,4.586 3.742,6.782 1.761,2.795 3.998,5.192 6.22,7.616 C 0.693,-0.247 0.338,0.299 0,0" /></g><g
           transform="translate(254.2002,90.8418)"
           id="g96"><path
             id="path98"
             style="fill:#284389;fill-opacity:1;fill-rule:nonzero;stroke:none"
             d="m 0,0 c 3.396,9.176 8.255,16.051 14.827,23.202 2.902,3.159 5.899,6.593 10.219,7.725 7.138,1.87 4.527,-14.752 3.459,-17.901 -0.084,-0.246 0.281,-0.512 0.418,-0.243 3.414,6.759 3.87,24.817 -7.914,17.957 C 16.015,27.833 12.116,22.34 8.581,17.894 4.36,12.584 1.481,6.69 -0.832,0.348 -1.032,-0.201 -0.217,-0.587 0,0" /></g><g
           transform="translate(302.1172,99.4189)"
           id="g100"><path
             id="path102"
             style="fill:#284389;fill-opacity:1;fill-rule:nonzero;stroke:none"
             d="m 0,0 c -3.274,2.323 -4.611,6.21 -6.664,9.5 -1.328,2.128 -3.719,5.976 -6.713,5.542 -0.248,-0.036 -0.24,-0.356 -0.093,-0.492 1.224,-1.125 2.663,-1.822 3.824,-3.071 1.281,-1.378 2.267,-3.055 3.267,-4.637 C -4.686,4.162 -3.018,1.257 -0.4,-0.633 0.007,-0.927 0.377,-0.268 0,0" /></g><g
           transform="translate(326.2617,129.8945)"
           id="g104"><path
             id="path106"
             style="fill:#284389;fill-opacity:1;fill-rule:nonzero;stroke:none"
             d="m 0,0 c -2.484,-1.422 -7.897,-0.558 -10.594,-0.071 -2.501,0.451 -5.926,1.29 -7.939,-0.781 -0.221,-0.226 -0.063,-0.629 0.263,-0.599 3.988,0.363 8.186,1.705 12.071,-0.313 1.906,-0.991 5.058,-0.808 6.807,0.403 C 1.298,-0.883 0.814,0.466 0,0" /></g><g
           transform="translate(326.334,107.5088)"
           id="g108"><path
             id="path110"
             style="fill:#284389;fill-opacity:1;fill-rule:nonzero;stroke:none"
             d="m 0,0 c -3.262,1.836 -4.396,6.479 -7.576,8.586 -2.528,1.672 -5.322,4.8 -8.705,3.27 -0.178,-0.079 -0.073,-0.338 0.1,-0.33 5.112,0.246 7.247,-3.011 10.195,-6.545 1.644,-1.972 3.294,-4.83 5.633,-6.065 C 0.298,-1.428 0.576,-0.324 0,0" /></g><g
           transform="translate(310.877,109.084)"
           id="g112"><path
             id="path114"
             style="fill:#284389;fill-opacity:1;fill-rule:nonzero;stroke:none"
             d="m 0,0 c -2.205,4.885 -4.086,9.691 -8.32,13.184 -3.628,2.99 -9.591,5.3 -14.002,2.972 -0.321,-0.169 -0.164,-0.714 0.203,-0.662 5.336,0.751 9.89,-0.792 14.002,-4.234 C -4.6,8.314 -3.069,3.408 -1.293,-0.654 -0.883,-1.594 0.405,-0.896 0,0" /></g><g
           transform="translate(278.4268,126.5439)"
           id="g116"><path
             id="path118"
             style="fill:#284389;fill-opacity:1;fill-rule:nonzero;stroke:none"
             d="m 0,0 c 6.687,7.899 14.851,14.505 25.321,16.198 9.94,1.607 20.622,-1.783 28.18,-8.207 0.208,-0.178 0.461,0.112 0.354,0.325 -4.069,8.122 -17.887,9.893 -25.801,9.699 C 16.083,17.721 6.341,10.098 -1.033,1.322 -1.663,0.571 -0.69,-0.815 0,0" /></g><g
           transform="translate(334.8965,150.4541)"
           id="g120"><path
             id="path122"
             style="fill:#284389;fill-opacity:1;fill-rule:nonzero;stroke:none"
             d="m 0,0 c -5.552,0.716 -12.093,0.544 -17.381,-1.378 -0.16,-0.058 -0.099,-0.338 0.061,-0.348 5.748,-0.337 11.444,0.967 17.229,0.455 C 0.689,-1.341 0.742,-0.096 0,0" /></g><g
           transform="translate(299.5566,148.5781)"
           id="g124"><path
             id="path126"
             style="fill:#284389;fill-opacity:1;fill-rule:nonzero;stroke:none"
             d="m 0,0 c 7.075,6.054 14.802,9.791 24.027,11.184 4.821,0.727 9.875,0.819 14.52,-0.858 3.13,-1.13 6.187,-1.936 9.534,-1.636 0.313,0.028 0.276,0.598 -0.031,0.593 -4.902,-0.088 -9.06,2.102 -13.722,3.157 -3.92,0.888 -8.133,0.301 -12.049,-0.26 C 13.521,10.923 5.896,6.632 -0.723,0.924 -1.252,0.468 -0.571,-0.489 0,0" /></g><g
           transform="translate(353.1914,189.7334)"
           id="g128"><path
             id="path130"
             style="fill:#284389;fill-opacity:1;fill-rule:nonzero;stroke:none"
             d="m 0,0 c 0.519,-6.653 -3.955,-13.248 -9.774,-16.187 -0.268,-0.135 -0.14,-0.649 0.173,-0.567 6.917,1.795 11.248,10.173 10.72,16.951 C 1.058,0.994 -0.061,0.784 0,0" /></g><g
           transform="translate(355.6279,175.9385)"
           id="g132"><path
             id="path134"
             style="fill:#284389;fill-opacity:1;fill-rule:nonzero;stroke:none"
             d="m 0,0 c -4.041,-4.096 -7.071,-7.317 -13.337,-7.471 -5.009,-0.123 -8.159,-0.862 -12.556,-3.487 -0.2,-0.12 -0.121,-0.524 0.14,-0.457 2.588,0.663 4.779,2.077 7.367,2.809 2.644,0.748 5.85,-0.542 8.474,0.528 1.728,0.705 4.037,1.138 5.495,2.344 1.899,1.57 3.08,3.537 4.668,5.414 C 0.401,-0.144 0.188,0.19 0,0" /></g><g
           transform="translate(341.043,187.8887)"
           id="g136"><path
             id="path138"
             style="fill:#284389;fill-opacity:1;fill-rule:nonzero;stroke:none"
             d="m 0,0 c -0.197,-1.405 0.828,-2.915 1.037,-4.322 0.361,-2.438 -1.572,-4.789 -2.309,-7.014 -0.124,-0.375 0.321,-0.825 0.658,-0.509 1.466,1.376 1.995,3.318 1.913,5.273 -0.043,1.025 0.168,2.052 0.09,3.084 C 1.311,-2.47 0.68,-1.059 0.834,-0.1 0.925,0.462 0.083,0.586 0,0" /></g><g
           transform="translate(335.3359,186.6035)"
           id="g140"><path
             id="path142"
             style="fill:#284389;fill-opacity:1;fill-rule:nonzero;stroke:none"
             d="m 0,0 c -3.13,-5.806 -7.565,-11.773 -13.529,-14.863 -0.173,-0.09 -0.051,-0.383 0.134,-0.303 6.418,2.763 10.901,8.617 14.063,14.65 C 0.905,-0.062 0.27,0.5 0,0" /></g><g
           transform="translate(329.3145,173.8691)"
           id="g144"><path
             id="path146"
             style="fill:#284389;fill-opacity:1;fill-rule:nonzero;stroke:none"
             d="m 0,0 c -0.41,-0.854 -1.05,-1.448 -1.746,-2.067 -0.725,-0.646 -1.645,-1.022 -2.391,-1.654 -0.421,-0.356 0.095,-1.055 0.562,-0.718 0.855,0.616 1.594,1.359 2.391,2.045 0.674,0.58 1.21,1.368 1.534,2.189 C 0.432,0.002 0.107,0.224 0,0" /></g><g
           transform="translate(293.1016,148.5439)"
           id="g148"><path
             id="path150"
             style="fill:#284389;fill-opacity:1;fill-rule:nonzero;stroke:none"
             d="M 0,0 C 7.852,8.435 12.267,30.292 1.131,37.941 0.919,38.087 0.739,37.762 0.926,37.619 6.424,33.404 6.414,25.395 5.973,19.123 5.531,12.843 3.772,5.547 -0.672,0.859 -1.117,0.391 -0.474,-0.51 0,0" /></g><g
           transform="translate(295.0586,163.2187)"
           id="g152"><path
             id="path154"
             style="fill:#284389;fill-opacity:1;fill-rule:nonzero;stroke:none"
             d="m 0,0 c 0.875,-2.307 -6.035,-5.456 -7.466,-6.306 -1.903,-1.13 -3.325,-2.531 -4.735,-4.241 -3.609,-4.372 -4.961,-11.847 -5.895,-17.307 -0.037,-0.218 0.248,-0.405 0.416,-0.243 1.564,1.507 1.645,4.12 1.989,6.147 0.839,4.942 3.394,11.502 7.89,14.267 2.44,1.5 10.261,3.665 8.428,8.001 C 0.432,0.779 -0.166,0.439 0,0" /></g><g
           transform="translate(293.4531,175.6865)"
           id="g156"><path
             id="path158"
             style="fill:#284389;fill-opacity:1;fill-rule:nonzero;stroke:none"
             d="m 0,0 c -0.449,-3.218 -1.822,-6.359 -3.197,-9.263 -0.743,-1.567 -2.179,-3.061 -2.363,-4.799 -0.018,-0.175 0.182,-0.389 0.362,-0.279 1.745,1.07 2.845,4.237 3.718,6.063 1.317,2.758 2.023,5.207 2.177,8.194 C 0.723,0.394 0.068,0.489 0,0" /></g><g
           transform="translate(250.9434,155.9668)"
           id="g160"><path
             id="path162"
             style="fill:#284389;fill-opacity:1;fill-rule:nonzero;stroke:none"
             d="M 0,0 C 3.805,-3.642 7.457,-9.793 8.324,-15.028 9.492,-22.083 8.725,-28.057 7.34,-34.985 5.268,-45.357 -3.535,-53.479 -3.264,-64.309 c 0.01,-0.395 0.613,-0.683 0.723,-0.192 0.886,3.952 1.596,7.527 3.616,11.104 1.733,3.066 3.547,6.056 5.042,9.25 1.9,4.054 2.571,8.418 3.365,12.781 C 11.556,-19.985 9.357,-7.555 0.34,0.539 0.019,0.827 -0.275,0.265 0,0" /></g><g
           transform="translate(282.0684,192.9844)"
           id="g164"><path
             id="path166"
             style="fill:#284389;fill-opacity:1;fill-rule:nonzero;stroke:none"
             d="m 0,0 c 3.914,-6.445 4.75,-13.141 3.248,-20.504 -0.904,-4.429 -3.003,-8.655 -3.42,-13.18 -0.004,-0.052 0.072,-0.079 0.089,-0.023 3.116,10.297 9.264,24.388 0.14,33.76 C 0.018,0.093 -0.025,0.042 0,0" /></g><g
           transform="translate(274.2119,185.8262)"
           id="g168"><path
             id="path170"
             style="fill:#284389;fill-opacity:1;fill-rule:nonzero;stroke:none"
             d="m 0,0 c 2.494,-5.501 -0.741,-14.163 4.491,-18.326 0.081,-0.065 0.143,0.053 0.1,0.12 C 1.013,-12.512 3.44,-5.645 0.041,0.021 0.024,0.048 -0.013,0.029 0,0" /></g><g
           transform="translate(324.3262,196.3115)"
           id="g172"><path
             id="path174"
             style="fill:#284389;fill-opacity:1;fill-rule:nonzero;stroke:none"
             d="m 0,0 c 1.619,-3.047 2.462,-5.955 2.578,-9.415 0.071,-2.146 -0.189,-4.205 -1.246,-6.108 -0.521,-0.94 -0.934,-1.668 -1.154,-2.746 -0.032,-0.152 0.145,-0.308 0.256,-0.149 2.098,3.02 2.901,5.207 2.886,8.913 C 3.307,-6.091 2.432,-2.485 0.074,0.052 0.037,0.093 -0.027,0.05 0,0" /></g><g
           transform="translate(270.1982,148.2451)"
           id="g176"><path
             id="path178"
             style="fill:#284389;fill-opacity:1;fill-rule:nonzero;stroke:none"
             d="m 0,0 c 2.348,-6.905 -2.054,-14.145 -4.302,-20.364 -1.177,-3.254 -2.545,-6.023 -4.401,-8.899 -0.864,-1.34 -1.906,-2.322 -1.468,-3.918 0.048,-0.175 0.304,-0.201 0.316,0.008 0.178,3.223 3.518,6.417 5.009,9.129 1.691,3.075 2.695,6.719 3.93,9.999 1.401,3.727 3.137,10.389 0.998,14.086 C 0.05,0.098 -0.02,0.059 0,0" /></g><g
           transform="translate(309.7617,190.3672)"
           id="g180"><path
             id="path182"
             style="fill:#284389;fill-opacity:1;fill-rule:nonzero;stroke:none"
             d="m 0,0 c 3.01,-5.142 0.76,-11.385 -0.859,-16.655 -1.755,-5.706 -4.287,-11.459 -7.198,-16.657 -0.014,-0.025 0.02,-0.056 0.037,-0.029 3.8,5.845 6.86,12.097 8.666,18.848 C 1.948,-9.626 3.252,-4.26 0.352,0.244 0.207,0.468 -0.125,0.215 0,0" /></g><g
           transform="translate(289.7676,123.7461)"
           id="g184"><path
             id="path186"
             style="fill:#e9f096;fill-opacity:1;fill-rule:nonzero;stroke:none"
             d="m 0,0 c 6.458,-6.367 11.01,-14.24 11.723,-23.417 0.009,-0.123 0.187,-0.113 0.198,0.006 C 12.799,-13.898 7.047,-5.769 0.023,0.037 0,0.058 -0.02,0.018 0,0" /></g><g
           transform="translate(289.7637,113.125)"
           id="g188"><path
             id="path190"
             style="fill:#e9f096;fill-opacity:1;fill-rule:nonzero;stroke:none"
             d="m 0,0 c -0.346,-3.9 -1.203,-11.56 -6.055,-12.26 -0.294,-0.043 -0.244,-0.502 0.028,-0.541 5.675,-0.796 6.302,9.139 6.17,12.783 C 0.139,0.076 0.01,0.104 0,0" /></g><g
           transform="translate(310.2061,151.25)"
           id="g192"><path
             id="path194"
             style="fill:#e9f096;fill-opacity:1;fill-rule:nonzero;stroke:none"
             d="m 0,0 c 7.838,1.866 15.654,1.751 23.363,-0.561 0.363,-0.108 0.52,0.439 0.185,0.567 C 15.868,2.953 7.802,1.751 -0.018,0.098 -0.075,0.086 -0.058,-0.014 0,0" /></g><g
           transform="translate(335.0664,164.7842)"
           id="g196"><path
             id="path198"
             style="fill:#e9f096;fill-opacity:1;fill-rule:nonzero;stroke:none"
             d="m 0,0 c 3.492,-0.291 6.531,-1.896 8.91,-4.452 1.192,-1.281 2.477,-2.635 4.301,-1.889 0.35,0.143 0.223,0.74 -0.136,0.772 -2.677,0.236 -4.171,2.732 -6.37,4.017 C 4.538,-0.284 2.514,0.425 -0.008,0.154 -0.091,0.146 -0.079,0.006 0,0" /></g><g
           transform="translate(346.959,173.9941)"
           id="g200"><path
             id="path202"
             style="fill:#e9f096;fill-opacity:1;fill-rule:nonzero;stroke:none"
             d="M 0,0 C 2.982,-0.781 6.644,0.256 8.965,2.232 9.262,2.484 8.931,3.126 8.571,2.888 6.071,1.23 3.049,0.008 0.007,0.094 -0.053,0.095 -0.051,0.014 0,0" /></g><g
           transform="translate(326.1885,179.7393)"
           id="g204"><path
             id="path206"
             style="fill:#e9f096;fill-opacity:1;fill-rule:nonzero;stroke:none"
             d="M 0,0 C 2.905,2.297 5.767,4.153 9.124,5.707 9.405,5.837 9.263,6.36 8.948,6.283 5.281,5.387 2.524,2.65 -0.038,0.049 -0.063,0.022 -0.031,-0.024 0,0" /></g><g
           transform="translate(331.6855,172.7168)"
           id="g208"><path
             id="path210"
             style="fill:#e9f096;fill-opacity:1;fill-rule:nonzero;stroke:none"
             d="M 0,0 C 5.025,0.948 9.135,8.855 9.316,13.559 9.324,13.764 9.069,13.844 8.984,13.646 7.027,9.096 5.539,1.559 -0.005,0.031 -0.023,0.026 -0.018,-0.003 0,0" /></g><g
           transform="translate(307.5723,175.6699)"
           id="g212"><path
             id="path214"
             style="fill:#e9f096;fill-opacity:1;fill-rule:nonzero;stroke:none"
             d="M 0,0 C 0.733,2.299 1.587,4.52 2.01,6.903 2.513,9.736 1.355,12.47 2.057,15.34 2.113,15.568 1.826,15.712 1.721,15.48 0.83,13.54 1.187,11.727 1.461,9.664 1.9,6.37 0.604,3.195 -0.027,0.012 -0.031,-0.006 -0.007,-0.02 0,0" /></g><g
           transform="translate(322.1152,134.8115)"
           id="g216"><path
             id="path218"
             style="fill:#e9f096;fill-opacity:1;fill-rule:nonzero;stroke:none"
             d="M 0,0 C 1.127,-0.454 2.038,-1.247 2.589,-2.332 3.029,-3.2 2.939,-4.145 3.228,-5.04 3.373,-5.494 4.027,-5.435 4.159,-5.011 4.52,-3.852 3.824,-2.548 3.088,-1.681 2.289,-0.738 1.185,-0.238 0.009,0.045 -0.017,0.051 -0.021,0.009 0,0" /></g><g
           transform="translate(265.2842,246.6426)"
           id="g220"><path
             id="path222"
             style="fill:#93cb62;fill-opacity:1;fill-rule:nonzero;stroke:none"
             d="m 0,0 c -2.567,-7.776 -9.007,-20.743 -13.518,-27.876 -4.512,-7.134 -14.692,-16.837 -9.923,-33.122 l -3.156,-2.256 c 4.438,-7.301 4.419,-14.269 3.944,-20.707 -0.478,-6.437 -2.181,-33.915 -3.117,-39.82 l 4.328,-17.738 c -0.255,23.42 2.089,61.794 10.856,72.597 l 1.248,3.393 c 7.025,7.445 8.768,10.802 7.981,33.764 C -2.146,-8.804 4.052,-5.777 4.842,-1.853 1.522,0.386 0,0 0,0" /></g><g
           transform="translate(238.4316,185.458)"
           id="g224"><path
             id="path226"
             style="fill:#e75793;fill-opacity:1;fill-rule:nonzero;stroke:none"
             d="m 0,0 c 2.903,-3.173 4.676,-7.07 9.307,-7.913 5.122,-0.932 10.043,0.586 13.812,4.193 0.445,0.427 -0.012,1.384 -0.631,1.049 C 18.673,-4.737 15.283,-5.809 10.9,-5.503 6.342,-5.186 3.772,-2.052 0.767,0.924 0.248,1.437 -0.447,0.489 0,0" /></g><g
           transform="translate(265.3203,242.0908)"
           id="g228"><path
             id="path230"
             style="fill:#e9f096;fill-opacity:1;fill-rule:nonzero;stroke:none"
             d="m 0,0 c -1.528,-6.59 -5.116,-12.047 -8.66,-17.703 -3.153,-5.029 -5.976,-10.398 -8.609,-15.717 -3.405,-6.879 -8.469,-20.252 -1.684,-26.692 0.313,-0.298 0.68,0.182 0.539,0.496 -4.213,9.387 2.433,22.008 6.291,30.665 4.177,9.374 10.41,18.634 12.687,28.715 C 0.65,0.144 0.096,0.416 0,0" /></g><g
           transform="translate(265.791,244.7832)"
           id="g232"><path
             id="path234"
             style="fill:#284389;fill-opacity:1;fill-rule:nonzero;stroke:none"
             d="m 0,0 c 0.691,0.096 2.002,0.253 2.428,-0.43 0.23,-0.373 0.921,-1.112 0.61,-1.61 -0.107,-0.171 0.087,-0.372 0.255,-0.254 0.652,0.46 0.389,1.736 0.182,2.335 C 3.202,0.823 2.786,1.022 2.021,1.193 1.289,1.356 0.525,1.3 -0.207,1.17 -0.902,1.046 -0.697,-0.096 0,0" /></g><g
           transform="translate(267.8008,243.123)"
           id="g236"><path
             id="path238"
             style="fill:#284389;fill-opacity:1;fill-rule:nonzero;stroke:none"
             d="m 0,0 c -2.311,-10.043 -5.828,-19.214 -5.652,-29.686 0.172,-10.182 4.129,-26.116 -7.229,-31.92 -0.594,-0.304 -0.31,-1.379 0.379,-1.243 9.891,1.958 9.912,14.233 9.585,22.124 -0.272,6.577 -1.132,13.07 -0.368,19.645 0.807,6.942 2.805,13.854 4.174,20.709 C 1.007,0.22 0.152,0.66 0,0" /></g><g
           transform="translate(238.5332,186.6328)"
           id="g240"><path
             id="path242"
             style="fill:#284389;fill-opacity:1;fill-rule:nonzero;stroke:none"
             d="m 0,0 c 5.418,-5.957 14.424,-8.518 22.087,-5.562 0.421,0.164 0.169,0.823 -0.239,0.785 C 14.261,-5.49 6.477,-5.105 0.848,0.781 0.301,1.354 -0.506,0.556 0,0" /></g><g
           transform="translate(238.2187,183.1865)"
           id="g244"><path
             id="path246"
             style="fill:#284389;fill-opacity:1;fill-rule:nonzero;stroke:none"
             d="m 0,0 c 3.923,-6.204 12.641,-8.081 19.34,-5.393 0.251,0.101 0.094,0.47 -0.141,0.458 C 12.514,-5.268 5.26,-5.27 0.977,0.9 0.441,1.67 -0.445,0.704 0,0" /></g><g
           transform="translate(253.5215,177.584)"
           id="g248"><path
             id="path250"
             style="fill:#284389;fill-opacity:1;fill-rule:nonzero;stroke:none"
             d="m 0,0 c -7.385,-11.824 -9.446,-24.99 -9.622,-38.728 -0.166,-12.984 -0.192,-26.744 2.891,-39.417 0.069,-0.287 0.47,-0.222 0.419,0.075 -2.085,12.255 -2.124,24.869 -1.983,37.265 0.158,13.915 2.494,27.646 9.561,39.828 C 1.754,-0.134 0.572,0.916 0,0" /></g></g></g><g
       transform="matrix(1.2850075,0,0,1.2850075,-77.514419,-57.579336)"
       id="g252"><g
         clip-path="url(#clipPath258)"
         id="g254"><g
           transform="translate(241.752,267.9102)"
           id="g260"><path
             id="path262"
             style="fill:#284389;fill-opacity:1;fill-rule:nonzero;stroke:none"
             d="M 0,0 C 1.61,0.85 3.251,1.437 5.038,1.794 6.54,2.094 8.224,2.01 9.59,2.726 10.036,2.96 9.887,3.651 9.412,3.734 7.729,4.03 5.849,3.275 4.252,2.762 2.658,2.248 1.115,1.591 -0.35,0.779 -0.785,0.538 -0.465,-0.246 0,0" /></g><g
           transform="translate(164.3994,291.5176)"
           id="g264"><path
             id="path266"
             style="fill:#f6d208;fill-opacity:1;fill-rule:nonzero;stroke:none"
             d="m 0,0 c -6.643,-17.32 -0.277,-41.301 3.257,-59.719 -0.236,0.234 -0.046,0.129 -0.007,-0.109 0.062,-0.051 -0.323,1.169 -0.132,-0.171 -12.922,11.08 -38.053,14.597 -52.078,10.832 0.428,-13.506 -8.476,-29.221 -9.254,-39.085 2.693,1.535 5.438,1.083 8.204,2.697 0.623,0.409 -0.005,-0.29 0.174,-0.201 -0.041,-0.062 -2.858,-6.686 -4.822,-8.716 0.565,0.25 -0.198,-0.646 -0.162,-0.607 0.065,0.034 0.216,0.394 0.031,0.194 -0.005,-0.002 -0.086,-0.089 0.132,0.142 1.744,0.694 5.035,1.186 5.69,1.513 0.034,-0.246 0.169,-0.405 0.407,-0.482 -0.029,-0.048 -0.568,0.144 -0.141,0.369 -1.667,-2.832 -2.576,-8.277 -3.88,-10.713 -0.007,0.227 0.097,0.229 0.309,0.004 -0.404,-0.319 -0.03,0.906 -0.428,0.134 2.063,1.28 5.791,2.26 5.992,2.403 0.263,-0.194 0.402,-0.457 0.416,-0.784 -2.278,-3.965 -3.407,-8.925 -5.604,-13.669 0.143,0.123 0.212,0.736 0.15,0.602 1.737,1.332 5.579,2.345 7.438,3.704 0.016,-0.494 0.225,0.407 -0.075,0.176 0.044,-0.297 0.188,-0.464 0.427,-0.494 0.092,0.517 -1.125,-0.807 0.138,0.048 -0.032,-0.1 0.163,-0.711 0.381,-0.59 -2.025,-4.558 -3.381,-10.579 -5.41,-14.622 0.187,-0.03 0.191,0.029 0.01,0.183 -0.166,-0.115 0.427,-0.568 0.394,-0.655 25.921,24.109 72.913,16.013 86.047,11.378 6.071,-2.145 15.096,4.574 21.719,7.99 0.185,-0.26 -1.126,-0.386 -0.581,0.001 -8.011,17.656 11.365,57.713 19.068,73.968 2.481,5.233 5.757,8.786 8.38,13.741 0.99,0.519 -1.089,-1.379 -0.961,-0.214 -1.646,-0.811 -6.875,-1.46 -10.072,-3.221 0.142,0.204 0.196,1.112 -0.322,0.907 0.119,0.141 0.493,-0.135 0.305,-0.216 1.743,2.453 2.325,4.823 4.038,6.751 -0.32,0.213 -0.38,0.201 -0.183,-0.033 -0.325,-0.013 -1.214,0.796 -0.993,1.189 -2.336,-0.93 -9.405,-2.009 -10.541,-2.529 -0.169,-0.186 -0.582,-0.672 -0.298,-0.478 0.683,1.093 0.919,2.183 1.46,3.13 0.591,0.164 -0.634,-1.381 0.293,-0.364 -0.097,-0.025 -1.25,0.445 -1.25,0.445 -1.769,-0.783 -7.527,-2.136 -9.907,-3.183 -0.688,-0.573 0.84,0.662 -0.238,0.326 -0.388,-0.3 1.111,-0.099 -0.18,-0.482 0.254,0.229 0.274,0.005 0.491,0.103 -0.037,0.158 -0.105,0.3 -0.208,0.428 2.715,2.334 3.113,3.312 4.022,4.097 -0.787,-0.214 0.046,0.173 -0.164,-0.014 -0.133,0.185 -0.114,0.335 0.057,0.449 -2.601,-0.931 -8.143,-1.543 -9.121,-1.888 0.099,1.379 -0.683,0.775 -1.614,0.654 -0.042,-0.044 0.559,0.907 0.337,0.962 1.817,1.506 5.03,4.507 5.863,5.113 0.307,0.542 0.294,2.045 0.933,2.629 -0.05,-0.218 -0.01,-0.418 0.117,-0.598 -1.041,0.017 0.982,0.127 0.323,-0.227 -0.177,0.008 -1.062,1.173 -1.103,1.061 -12.731,-3.422 -37.24,-1.737 -50.343,1.49" /></g><g
           transform="translate(215.2031,276.8369)"
           id="g268"><path
             id="path270"
             style="fill:#ec8b14;fill-opacity:1;fill-rule:nonzero;stroke:none"
             d="M 0,0 C 2.808,0.1 5.644,-0.602 7.748,-0.045 7.752,-0.029 8.505,-0.571 8.601,-0.572 8.517,-0.698 6.906,-2.98 7.012,-2.878 c 3.319,0.468 8.884,-0.523 10.939,-0.214 -0.027,-0.024 -0.29,0.098 -0.328,0.091 -0.624,-0.687 -1.897,-3.869 -2.608,-4.578 2.066,1.246 6.942,2.742 9.416,3.791 0.254,0.257 1.672,-0.338 1.622,-0.345 -1.688,-1.589 -2.625,-2.762 -4.053,-4.142 1.103,0.124 -0.632,-0.76 -0.217,-0.391 4.049,0.564 5.886,-0.104 9.025,0.385 2.443,0.586 0.563,-0.844 0.524,-0.848 0.043,-0.04 0.061,-0.04 0.055,10e-4 C 4.907,-53.893 6.156,-83.364 6.609,-92.646 c -2.602,-4.752 -6.521,-6.292 -13.088,-8.356 -36.746,11.767 -69.133,-1.351 -95.46,-10.45 -0.184,-0.239 0.86,0.145 0.292,-0.079 2.641,3.792 4.576,9.206 7.506,13.034 -0.283,-0.085 -0.73,0.221 -0.528,0.563 -1.182,-0.463 -0.894,-0.626 -0.931,0.204 -1.268,-0.291 -3.865,-0.776 -5.037,-1.192 0.215,-0.008 0.229,-0.013 0.045,-0.016 1.026,2.054 1.615,7.664 2.874,10.238 -2.426,0.133 -3.881,0.987 -6.541,1.209 -0.194,-0.238 0.246,-0.157 0.194,-0.163 0.456,0.836 2.349,4.252 3.277,5.732 -0.203,0.085 -0.795,1.664 -0.72,1.811 0.691,-0.296 -2.421,-0.568 -3.658,0.846 0.106,0.457 1.008,-0.517 0.179,0.188 0.578,2.225 3.205,6.22 3.847,7.156 31.898,1.99 57.947,-0.99 93.075,-14.67 0.02,-0.047 0.539,-0.349 0.676,-0.348 -0.127,-0.104 -0.517,0.039 -0.029,0.044 -0.535,-0.484 0.36,-0.975 -0.369,-0.696 0.485,0.915 -0.215,-0.105 -0.25,-0.019 0.367,-0.08 0.438,0.084 0.207,0.489 0.199,-0.151 0.277,-0.363 0.23,-0.641 -1.325,0.074 0.086,0.157 -0.142,0.014 -0.488,0.165 -0.401,0.74 0.221,0.617 0.029,-0.039 -0.944,-0.515 -0.538,-0.473 0.316,-0.242 0.48,0.604 0.349,0.637 -0.018,-0.234 0.018,-0.462 0.107,-0.682 -0.027,0.048 -0.002,0.708 0.175,0.665 0.044,-0.18 0.044,-0.365 -0.001,-0.546 -0.318,0.113 -0.513,0.345 -0.588,0.691 -0.095,0.24 0.847,-0.647 0.736,-0.65 -0.092,-0.318 -0.3,-0.396 -0.619,-0.228 0.02,-0.164 -0.29,0.46 -0.239,0.448 -0.016,0.191 -0.02,-0.328 0.117,-0.323 0.096,0.212 0.052,0.662 0.2,0.604 -0.422,-0.4 0.828,-0.727 -0.234,-0.582 0.853,-0.129 0.213,0.018 0.6,0.118 -0.123,0.056 -0.175,0.142 -0.148,0.266 0.815,-0.22 0.064,-0.344 0.27,-0.455 -0.128,0.081 -0.337,0.447 -0.212,0.453 -1.259,0.852 -0.396,-0.051 -1.583,0.066 -8.926,16.455 -4.828,46.827 0.553,66.805 1.948,7.23 4.335,12.516 8.083,18.44" /></g><g
           transform="translate(202.0029,175.2793)"
           id="g272"><path
             id="path274"
             style="fill:#93cb62;fill-opacity:1;fill-rule:nonzero;stroke:none"
             d="m 0,0 c 6.722,0.556 22.333,6.018 24.438,12.949 1.241,-13.69 -0.667,-9.752 3.17,-25.25 5.737,-23.175 19.389,-66.502 18.889,-79.502 l -3.823,-3.175 -1.677,-0.825 c 0,0 -8.671,80.865 -37.244,92.752 C -0.382,-1.331 0,0 0,0" /></g><g
           transform="translate(202.6816,172.4258)"
           id="g276"><path
             id="path278"
             style="fill:#e75793;fill-opacity:1;fill-rule:nonzero;stroke:none"
             d="m 0,0 c 10.291,-0.771 18.559,3.319 23.293,12.74 0.147,0.293 -0.206,0.82 -0.488,0.488 C 16.807,6.153 9.612,2.688 0.207,2.912 -1.564,2.955 -1.725,0.129 0,0" /></g><g
           transform="translate(213.9102,170.0039)"
           id="g280"><path
             id="path282"
             style="fill:#e9f096;fill-opacity:1;fill-rule:nonzero;stroke:none"
             d="m 0,0 c 4.863,1.359 12.845,4.804 12.787,10.921 -0.006,0.553 -0.666,0.99 -1.042,0.433 C 10.232,9.117 9.277,6.906 7.21,5.046 5.109,3.157 2.461,1.997 -0.207,1.17 -0.868,0.965 -0.684,-0.19 0,0" /></g><g
           transform="translate(223.5615,176.9268)"
           id="g284"><path
             id="path286"
             style="fill:#e9f096;fill-opacity:1;fill-rule:nonzero;stroke:none"
             d="m 0,0 c 0.9,-6.734 1.247,-12.559 3.662,-18.981 2.944,-7.829 6.125,-15.832 8.275,-23.91 4.479,-16.827 8.809,-33.646 12.637,-50.624 0.114,-0.506 0.786,-0.384 0.729,0.129 -1.885,16.581 -8.339,32.673 -12.167,48.859 -1.758,7.425 -4.319,14.608 -6.67,21.862 -1.223,3.775 -2.772,7.497 -3.643,11.37 C 1.977,-7.531 2.145,-3.53 1.639,0.289 1.485,1.447 -0.153,1.15 0,0" /></g><g
           transform="translate(225.9385,279.6426)"
           id="g288"><path
             id="path290"
             style="fill:#f6d208;fill-opacity:1;fill-rule:nonzero;stroke:none"
             d="m 0,0 c -11.028,-12.779 -16.181,-30.107 -17.819,-46.653 -1.476,-14.915 -1.464,-31.911 3.338,-46.208 0.087,-0.263 0.479,-0.119 0.418,0.138 -7.082,29.831 -5.588,66.752 15.487,90.903 C 2.317,-0.796 0.96,1.112 0,0" /></g><g
           transform="translate(233.2148,276.7197)"
           id="g292"><path
             id="path294"
             style="fill:#f6d208;fill-opacity:1;fill-rule:nonzero;stroke:none"
             d="m 0,0 c -8.961,-12.365 -15.461,-26.78 -18.469,-41.774 -2.295,-11.436 -4.131,-23.748 -2.77,-35.433 0.025,-0.222 0.374,-0.222 0.37,0.01 -0.48,27.448 6.094,53.541 22.611,75.849 C 2.552,-0.255 0.865,1.194 0,0" /></g><g
           transform="translate(241.0859,274.3291)"
           id="g296"><path
             id="path298"
             style="fill:#f6d208;fill-opacity:1;fill-rule:nonzero;stroke:none"
             d="m 0,0 c -9.78,-13.41 -16.104,-29.682 -20.327,-45.64 -3.369,-12.728 -6.642,-26.739 -4.927,-39.991 0.047,-0.372 0.606,-0.369 0.617,0.017 0.868,29.421 8.64,60.259 26.278,84.346 C 2.396,-0.235 0.817,1.12 0,0" /></g><g
           transform="translate(112.6758,194.8672)"
           id="g300"><path
             id="path302"
             style="fill:#f6d208;fill-opacity:1;fill-rule:nonzero;stroke:none"
             d="m 0,0 c 12.606,2.485 24.823,3.893 37.654,3.293 18.265,-0.854 35.215,-5.576 52.608,-10.846 0.204,-0.061 0.291,0.246 0.103,0.321 C 61.814,4.074 29.828,7.902 -0.346,1.955 -1.5,1.727 -1.156,-0.228 0,0" /></g><g
           transform="translate(111.752,186.6699)"
           id="g304"><path
             id="path306"
             style="fill:#f6d208;fill-opacity:1;fill-rule:nonzero;stroke:none"
             d="m 0,0 c 31.35,7.953 66.756,6.129 97.384,-4.436 0.13,-0.044 0.184,0.155 0.066,0.204 C 67.443,8.233 30.864,10.112 -0.348,1.969 -1.49,1.671 -1.15,-0.292 0,0" /></g><g
           transform="translate(113.2451,176.6816)"
           id="g308"><path
             id="path310"
             style="fill:#f6d208;fill-opacity:1;fill-rule:nonzero;stroke:none"
             d="m 0,0 c 17.176,5.333 34.74,7.471 52.614,8.74 10.594,0.752 20.907,-0.6 31.408,-2.05 0.171,-0.023 0.18,0.25 0.02,0.28 C 73.472,8.887 63.3,10.783 52.521,10.524 34.671,10.095 16.687,7.326 -0.348,1.969 -1.468,1.617 -1.128,-0.351 0,0" /></g><g
           transform="translate(172.5166,253.0176)"
           id="g312"><path
             id="path314"
             style="fill:#ffffff;fill-opacity:1;fill-rule:nonzero;stroke:none"
             d="m 0,0 c 0.435,-3.323 1.714,-6.629 4.556,-8.601 2.473,-1.716 5.74,-0.766 7.694,1.269 3.554,3.702 3.685,10.806 3.354,15.535 -0.322,4.636 -1.664,11.277 -6.363,13.477 -6.41,3 -9.18,-6.311 -9.617,-10.73 -0.02,-0.192 0.281,-0.297 0.327,-0.087 0.915,4.196 3.217,12.711 9.32,9.8 3.888,-1.855 4.942,-7.793 5.405,-11.56 0.54,-4.402 0.403,-9.599 -1.612,-13.638 C 11.882,-6.907 9.642,-8.655 6.903,-8.661 2.886,-8.669 0.764,-3.133 0.268,0.047 0.238,0.236 -0.024,0.187 0,0" /></g><g
           transform="translate(171.2266,257.04)"
           id="g316"><path
             id="path318"
             style="fill:#ffffff;fill-opacity:1;fill-rule:nonzero;stroke:none"
             d="m 0,0 c -1.904,-2.058 -3.312,-4.535 -2.701,-7.409 0.062,-0.292 0.398,-0.321 0.52,-0.06 0.964,2.066 2.861,3.546 3.819,5.585 0.033,0.072 -0.05,0.202 -0.119,0.119 -1.47,-1.732 -3.06,-3.431 -4.178,-5.424 0.163,-0.042 0.325,-0.084 0.489,-0.126 -0.363,2.629 0.887,4.863 2.621,6.737 C 0.745,-0.261 0.318,0.344 0,0" /></g><g
           transform="translate(172.4072,262.2559)"
           id="g320"><path
             id="path322"
             style="fill:#ffffff;fill-opacity:1;fill-rule:nonzero;stroke:none"
             d="m 0,0 c -1.165,2.441 -2.207,4.92 -3.116,7.47 -0.091,0.255 -0.465,0.175 -0.475,-0.084 -0.09,-2.394 0.354,-4.616 1.396,-6.775 0.231,-0.48 0.555,-0.932 0.852,-1.371 0.348,-0.513 0.059,-0.381 -0.513,-0.688 -0.816,-0.44 -1.704,-1.113 -2.618,-1.324 0.038,-0.212 0.076,-0.425 0.114,-0.637 0.706,0.194 3.545,0.916 2.898,-0.275 -0.547,-1.008 -1.752,-1.429 -2.572,-2.166 -0.172,-0.154 0.015,-0.534 0.236,-0.393 1.497,0.957 2.688,1.773 3.248,3.541 0.052,0.163 -0.071,0.347 -0.249,0.323 -1.221,-0.16 -2.479,-0.076 -3.675,-0.393 -0.366,-0.098 -0.263,-0.721 0.114,-0.637 1.357,0.304 2.578,1.369 3.824,1.966 0.169,0.081 0.195,0.325 0.084,0.463 -1.781,2.202 -2.599,4.76 -2.665,7.576 0.05,-2.108 1.721,-4.834 2.672,-6.823 C -0.294,-0.544 0.146,-0.307 0,0" /></g><g
           transform="translate(194.3174,266.9053)"
           id="g324"><path
             id="path326"
             style="fill:#ffffff;fill-opacity:1;fill-rule:nonzero;stroke:none"
             d="m 0,0 c -0.458,-1.676 -1.007,-3.354 -1.013,-5.106 -0.001,-0.354 0.459,-0.427 0.518,-0.063 0.269,1.67 0.676,3.277 1.126,4.905 C 0.748,0.159 0.125,0.459 0,0" /></g><g
           transform="translate(191.2031,259.4111)"
           id="g328"><path
             id="path330"
             style="fill:#ffffff;fill-opacity:1;fill-rule:nonzero;stroke:none"
             d="m 0,0 c -0.375,-4.805 -1.512,-9.771 -0.527,-14.565 0.066,-0.323 0.583,-0.35 0.566,0.015 -0.221,4.904 0.357,9.582 0.725,14.458 C 0.803,0.427 0.043,0.541 0,0" /></g><g
           transform="translate(199.207,268.0664)"
           id="g332"><path
             id="path334"
             style="fill:#ffffff;fill-opacity:1;fill-rule:nonzero;stroke:none"
             d="m 0,0 c -4.424,-7.3 -5.372,-15.782 -4.82,-24.165 0.011,-0.162 0.259,-0.155 0.265,0.008 0.299,8.281 0.727,16.473 4.991,23.821 C 0.604,-0.046 0.192,0.316 0,0" /></g><g
           transform="translate(202.6328,266.333)"
           id="g336"><path
             id="path338"
             style="fill:#ffffff;fill-opacity:1;fill-rule:nonzero;stroke:none"
             d="m 0,0 c -2.563,-6.884 -4.428,-14.334 -3.199,-21.709 0.042,-0.253 0.447,-0.264 0.433,0.012 C -3.15,-14.17 -1.998,-7.33 0.609,-0.256 0.758,0.146 0.159,0.431 0,0" /></g><g
           transform="translate(187.1738,236.5527)"
           id="g340"><path
             id="path342"
             style="fill:#ffffff;fill-opacity:1;fill-rule:nonzero;stroke:none"
             d="m 0,0 c -1.834,-6.071 -3.027,-13.084 -1.232,-19.307 0.087,-0.303 0.491,-0.245 0.451,0.08 -0.809,6.556 -0.5,12.608 1.386,18.973 C 0.726,0.151 0.132,0.437 0,0" /></g><g
           transform="translate(190.0059,234.5225)"
           id="g344"><path
             id="path346"
             style="fill:#ffffff;fill-opacity:1;fill-rule:nonzero;stroke:none"
             d="m 0,0 c -1.495,-6.877 -0.514,-14.074 1.912,-20.64 0.092,-0.247 0.449,-0.113 0.397,0.133 C 0.832,-13.585 -0.877,-7.264 0.482,-0.128 0.537,0.158 0.065,0.303 0,0" /></g><g
           transform="translate(193.5703,234.209)"
           id="g348"><path
             id="path350"
             style="fill:#ffffff;fill-opacity:1;fill-rule:nonzero;stroke:none"
             d="m 0,0 c 0.086,-7.809 -1.285,-16.635 1.345,-24.164 0.091,-0.259 0.45,-0.113 0.407,0.136 C 0.375,-16.002 0.756,-8.168 0.561,-0.066 0.551,0.309 -0.004,0.401 0,0" /></g><g
           transform="translate(195.6934,233.3389)"
           id="g352"><path
             id="path354"
             style="fill:#ffffff;fill-opacity:1;fill-rule:nonzero;stroke:none"
             d="m 0,0 c -0.099,-6.997 0.106,-14.077 1.951,-20.868 0.061,-0.223 0.377,-0.177 0.33,0.058 C 0.94,-13.931 0.464,-7.069 0.551,-0.066 0.555,0.306 0.006,0.392 0,0" /></g><g
           transform="translate(156.2187,223.6885)"
           id="g356"><path
             id="path358"
             style="fill:#ffffff;fill-opacity:1;fill-rule:nonzero;stroke:none"
             d="m 0,0 c 4.893,0.585 10.299,0.611 14.161,-2.898 0.118,-0.109 0.253,0.09 0.165,0.198 C 10.922,1.463 4.732,1.319 -0.131,0.738 -0.572,0.686 -0.441,-0.053 0,0" /></g><g
           transform="translate(157.2539,218.9541)"
           id="g360"><path
             id="path362"
             style="fill:#ffffff;fill-opacity:1;fill-rule:nonzero;stroke:none"
             d="m 0,0 c 3.072,-0.39 6.152,-0.687 9.21,-1.191 3.347,-0.554 6.276,-1.773 9.309,-3.218 0.206,-0.098 0.311,0.222 0.159,0.341 C 13.562,-0.019 6.213,-0.079 0.045,0.621 -0.336,0.665 -0.362,0.046 0,0" /></g><g
           transform="translate(158.4053,214.541)"
           id="g364"><path
             id="path366"
             style="fill:#ffffff;fill-opacity:1;fill-rule:nonzero;stroke:none"
             d="m 0,0 c 7.778,-0.547 15.136,-1.441 22.54,-3.972 0.233,-0.08 0.301,0.248 0.115,0.354 C 16.119,0.088 7.333,0.091 0.041,0.58 -0.315,0.604 -0.341,0.023 0,0" /></g><g
           transform="translate(158.4668,210.166)"
           id="g368"><path
             id="path370"
             style="fill:#ffffff;fill-opacity:1;fill-rule:nonzero;stroke:none"
             d="m 0,0 c 3.881,-0.011 7.635,-0.644 11.391,-1.583 3.959,-0.99 7.833,-2.584 11.861,-3.261 0.32,-0.052 0.392,0.47 0.109,0.57 C 16.026,-1.68 7.873,0.71 0.045,0.615 -0.33,0.611 -0.362,0.001 0,0" /></g><g
           transform="translate(127.2285,228)"
           id="g372"><path
             id="path374"
             style="fill:#ffffff;fill-opacity:1;fill-rule:nonzero;stroke:none"
             d="m 0,0 c 2.575,3.021 5.695,5.489 9.867,5.166 3.94,-0.305 6.945,-3.351 9.715,-5.817 0.256,-0.229 0.562,0.2 0.357,0.43 C 17.349,2.703 13.854,5.236 9.912,5.79 5.709,6.381 2.172,3.428 -0.352,0.451 -0.568,0.195 -0.236,-0.278 0,0" /></g><g
           transform="translate(127.75,227.8154)"
           id="g376"><path
             id="path378"
             style="fill:#ffffff;fill-opacity:1;fill-rule:nonzero;stroke:none"
             d="M 0,0 C 6.921,-1.576 13.658,-3.452 20.088,0.632 20.273,0.751 20.15,1.082 19.93,0.983 13.271,-2.03 6.9,-0.777 0.051,0.721 -0.381,0.815 -0.408,0.093 0,0" /></g><g
           transform="translate(128.2266,228.6387)"
           id="g380"><path
             id="path382"
             style="fill:#ffffff;fill-opacity:1;fill-rule:nonzero;stroke:none"
             d="M 0,0 C 3.363,0.847 6.697,1.28 10.158,0.834 10.347,0.81 10.357,1.112 10.18,1.143 6.685,1.733 3.336,1.328 -0.082,0.473 -0.359,0.404 -0.275,-0.07 0,0" /></g><g
           transform="translate(127.2754,217.1582)"
           id="g384"><path
             id="path386"
             style="fill:#ffffff;fill-opacity:1;fill-rule:nonzero;stroke:none"
             d="M 0,0 C 1.945,2.56 4.377,4.503 7.455,5.512 7.593,5.557 7.68,5.646 7.694,5.795 7.705,5.914 7.717,6.034 7.728,6.154 7.763,6.525 7.286,6.648 7.139,6.311 6.679,5.263 6.238,4.207 5.8,3.15 5.659,2.811 6.064,2.527 6.342,2.73 c 4.34,3.184 9.683,3.439 14.171,0.505 0.323,-0.212 0.542,0.242 0.299,0.473 C 16.775,7.562 9.998,6.338 5.896,3.303 6.076,3.162 6.258,3.022 6.438,2.883 6.873,3.942 7.302,5.002 7.711,6.07 7.516,6.123 7.318,6.175 7.122,6.227 7.105,5.887 3.891,4.555 3.389,4.22 1.859,3.202 0.619,1.826 -0.482,0.373 -0.711,0.072 -0.246,-0.325 0,0" /></g><g
           transform="translate(126.6836,214.5352)"
           id="g388"><path
             id="path390"
             style="fill:#ffffff;fill-opacity:1;fill-rule:nonzero;stroke:none"
             d="m 0,0 c 1.805,-1.227 3.72,-2.054 5.825,-2.628 0.701,-0.19 3.52,-1.078 4.114,-0.523 0.44,0.409 0.592,0.683 0.477,1.336 C 10.277,-1.028 8.012,0.782 7.253,1.438 7.047,1.615 6.855,1.293 6.982,1.113 7.447,1.068 7.471,1.033 7.051,1.007 7.107,0.943 7.177,0.896 7.26,0.865 7.381,0.794 7.505,0.804 7.591,0.924 c -0.06,-0.083 2.528,-0.888 2.897,-0.961 1.037,-0.208 2.096,-0.165 3.135,-0.016 2.344,0.338 4.051,2.023 5.126,4.022 0.123,0.228 -0.178,0.509 -0.342,0.263 C 15.801,0.33 11.717,-0.078 7.578,1.479 7.472,1.52 7.356,1.484 7.295,1.388 7.285,1.411 7.275,1.436 7.266,1.459 7.127,1.589 6.916,1.449 6.908,1.283 6.903,1.162 6.898,1.041 6.893,0.92 6.886,0.76 7.043,0.587 7.209,0.676 7.264,0.705 7.318,0.734 7.374,0.764 7.486,0.823 7.517,0.961 7.471,1.073 7.447,1.155 7.414,1.23 7.367,1.301 7.93,0.571 8.24,-0.144 8.859,-0.849 9.154,-1.184 10.388,-2.035 9.768,-2.518 9.098,-3.037 5.889,-1.953 5.268,-1.783 3.503,-1.3 1.859,-0.468 0.354,0.559 -0.012,0.808 -0.338,0.229 0,0" /></g><g
           transform="translate(126.6445,214.9336)"
           id="g392"><path
             id="path394"
             style="fill:#ffffff;fill-opacity:1;fill-rule:nonzero;stroke:none"
             d="M 0,0 C 3.566,1.468 7.209,2.669 11.023,3.281 11.282,3.323 11.205,3.747 10.947,3.715 7.053,3.226 3.381,2.016 -0.24,0.537 -0.56,0.406 -0.333,-0.137 0,0" /></g><g
           transform="translate(205.0664,169.1035)"
           id="g396"><path
             id="path398"
             style="fill:#284389;fill-opacity:1;fill-rule:nonzero;stroke:none"
             d="m 0,0 c 10.732,-3.871 16.878,-15.044 21.105,-24.932 3.678,-8.602 6.334,-17.602 8.509,-26.687 3.006,-12.558 4.07,-25.751 7.782,-38.103 0.171,-0.57 1.104,-0.707 1.084,0.03 -0.345,12.829 -3.996,25.984 -7.119,38.38 -2.408,9.56 -5.009,19.143 -8.773,28.27 C 18.324,-12.7 12.053,-1.396 0.748,2.303 -0.719,2.782 -1.361,0.491 0,0" /></g><g
           transform="translate(202.0166,173.2754)"
           id="g400"><path
             id="path402"
             style="fill:#284389;fill-opacity:1;fill-rule:nonzero;stroke:none"
             d="m 0,0 c 8.434,-0.352 20.899,6.377 23.827,14.701 0.125,0.357 -0.373,0.712 -0.594,0.348 C 18.899,7.908 8.606,1.645 0.119,1.674 -0.896,1.677 -0.993,0.042 0,0" /></g><g
           transform="translate(162.3066,289.6914)"
           id="g404"><path
             id="path406"
             style="fill:#284389;fill-opacity:1;fill-rule:nonzero;stroke:none"
             d="m 0,0 c -1.899,-9.914 -2.436,-19.713 -1.215,-29.744 0.62,-5.101 1.856,-10.107 3.338,-15.018 0.712,-2.357 1.648,-4.593 2.666,-6.833 0.935,-2.059 1.242,-4.267 2.213,-6.277 0.055,-0.112 0.189,-0.029 0.154,0.078 -0.519,1.562 -0.345,3.24 -0.741,4.836 -0.433,1.75 -1.183,3.638 -1.704,5.327 -1.682,5.459 -3.208,10.847 -4.149,16.486 -1.706,10.233 -1.153,20.817 0.463,31.022 C 1.136,0.577 0.135,0.701 0,0" /></g><g
           transform="translate(118.0293,238.5605)"
           id="g408"><path
             id="path410"
             style="fill:#284389;fill-opacity:1;fill-rule:nonzero;stroke:none"
             d="m 0,0 c 8.889,2.99 18.473,2.121 27.545,0.494 4.302,-0.77 8.672,-2.003 12.812,-3.405 3.401,-1.151 8.523,-2.286 11.25,-4.633 0.118,-0.1 0.217,0.097 0.122,0.19 -2.664,2.545 -6.47,3.388 -9.756,4.905 C 37.305,-0.296 32.691,1.352 27.691,2.546 18.375,4.772 8.334,4.962 -0.742,1.66 -1.75,1.293 -1.039,-0.349 0,0" /></g><g
           transform="translate(115.9678,239.625)"
           id="g412"><path
             id="path414"
             style="fill:#284389;fill-opacity:1;fill-rule:nonzero;stroke:none"
             d="m 0,0 c 1.124,-7.183 -2.294,-14.298 -4.863,-20.827 -1.816,-4.612 -4.278,-9.774 -3.476,-14.861 0.031,-0.202 0.33,-0.204 0.339,0.009 0.507,12.74 12.015,22.783 9.988,36.031 C 1.774,1.751 -0.218,1.396 0,0" /></g><g
           transform="translate(163.2637,289.0127)"
           id="g416"><path
             id="path418"
             style="fill:#284389;fill-opacity:1;fill-rule:nonzero;stroke:none"
             d="m 0,0 c 19.194,-6.159 39.63,-4.599 59.457,-4.062 0.26,0.006 0.291,0.422 0.031,0.433 C 39.951,-2.851 19.465,-4.192 0.605,1.859 -0.586,2.242 -1.108,0.355 0,0" /></g><g
           transform="translate(218.3916,276.2822)"
           id="g420"><path
             id="path422"
             style="fill:#284389;fill-opacity:1;fill-rule:nonzero;stroke:none"
             d="M 0,0 C 1.821,0.638 3.683,1.081 5.572,1.463 6.849,1.72 8.376,1.749 9.52,2.396 9.812,2.56 9.749,3.068 9.394,3.107 7.914,3.269 6.222,2.682 4.771,2.392 3.001,2.038 1.266,1.572 -0.437,0.979 -1.028,0.772 -0.616,-0.216 0,0" /></g><g
           transform="translate(224.9844,274.0742)"
           id="g424"><path
             id="path426"
             style="fill:#284389;fill-opacity:1;fill-rule:nonzero;stroke:none"
             d="M 0,0 C 1.244,0.407 2.505,0.762 3.799,0.971 5.231,1.202 6.73,1.007 8.135,1.385 8.796,1.562 8.789,2.641 8.066,2.712 6.725,2.845 5.461,2.396 4.174,2.075 2.685,1.702 1.202,1.316 -0.25,0.812 -0.665,0.669 -0.428,-0.141 0,0" /></g><g
           transform="translate(234.457,272.2529)"
           id="g428"><path
             id="path430"
             style="fill:#284389;fill-opacity:1;fill-rule:nonzero;stroke:none"
             d="M 0,0 C 1.321,0.6 2.663,1.052 4.09,1.323 5.357,1.563 6.669,1.439 7.942,1.665 8.369,1.74 8.439,2.471 8.005,2.592 5.211,3.373 2.062,2.245 -0.463,1.035 -1.063,0.747 -0.633,-0.287 0,0" /></g><g
           transform="translate(116.2051,165.0479)"
           id="g432"><path
             id="path434"
             style="fill:#284389;fill-opacity:1;fill-rule:nonzero;stroke:none"
             d="M 0,0 C 1.972,4.775 4.495,9.489 6.178,14.355 6.325,14.784 5.753,15.409 5.377,14.974 2.021,11.092 0.475,5.28 -1.426,0.598 -1.804,-0.333 -0.407,-0.987 0,0" /></g><g
           transform="translate(113.9063,177.1309)"
           id="g436"><path
             id="path438"
             style="fill:#284389;fill-opacity:1;fill-rule:nonzero;stroke:none"
             d="M 0,0 C 1.215,4.023 2.709,8.008 5.418,11.268 5.484,11.348 5.417,11.543 5.301,11.465 1.535,8.929 -0.408,4.924 -1.697,0.709 -2.043,-0.424 -0.37,-1.224 0,0" /></g><g
           transform="translate(112.4258,187.2988)"
           id="g440"><path
             id="path442"
             style="fill:#284389;fill-opacity:1;fill-rule:nonzero;stroke:none"
             d="M 0,0 C 0.505,1.683 1.103,3.367 1.909,4.931 2.622,6.312 3.75,7.416 4.709,8.62 4.773,8.701 4.67,8.853 4.572,8.795 3.236,8.011 1.942,7.088 0.873,5.964 -0.516,4.504 -1.121,2.599 -1.695,0.711 -2.041,-0.423 -0.367,-1.223 0,0" /></g><g
           transform="translate(112.1504,195.209)"
           id="g444"><path
             id="path446"
             style="fill:#284389;fill-opacity:1;fill-rule:nonzero;stroke:none"
             d="M 0,0 C 0.543,1.799 1.225,3.574 2.147,5.215 2.909,6.569 4.031,7.672 5,8.871 5.064,8.951 4.961,9.104 4.863,9.046 3.426,8.188 2.043,7.183 0.896,5.961 -0.48,4.498 -1.119,2.595 -1.695,0.711 -2.043,-0.423 -0.369,-1.223 0,0" /></g><g
           transform="translate(222.627,185.7031)"
           id="g448"><path
             id="path450"
             style="fill:#284389;fill-opacity:1;fill-rule:nonzero;stroke:none"
             d="m 0,0 c 1.086,17.307 4.531,33.981 10.561,50.226 1.931,5.203 4.178,10.252 6.619,15.239 3.101,6.34 6.289,13.132 11.336,18.155 0.105,0.106 -0.012,0.362 -0.159,0.262 C 23.341,80.471 19.875,73.735 17.006,68.603 14.12,63.438 11.424,58.138 9.203,52.65 2.353,35.722 -1.92,18.643 -2.49,0.299 -2.542,-1.385 -0.112,-1.777 0,0" /></g><g
           transform="translate(117.5508,164.0791)"
           id="g452"><path
             id="path454"
             style="fill:#284389;fill-opacity:1;fill-rule:nonzero;stroke:none"
             d="m 0,0 c 25.695,14.409 59.738,20.399 88.199,11.972 0.442,-0.131 0.61,0.499 0.223,0.683 -6.83,3.244 -14.995,3.795 -22.436,4.283 -7.727,0.508 -15.47,0.264 -23.171,-0.501 C 27.37,14.901 12.292,10.413 -1.203,2.695 -2.7,1.839 -1.579,-0.886 0,0" /></g><g
           transform="translate(201.2031,173.8545)"
           id="g456"><path
             id="path458"
             style="fill:#284389;fill-opacity:1;fill-rule:nonzero;stroke:none"
             d="m 0,0 c 0.236,-5.364 7.014,-4.123 10.431,-2.886 6.626,2.399 14.157,7.445 15.631,14.816 0.026,0.127 -0.143,0.178 -0.166,0.044 C 24.922,6.173 19.276,2.645 14.369,0.33 12.35,-0.622 2.023,-4.474 1.68,0.045 1.603,1.062 -0.045,1.044 0,0" /></g><g
           transform="translate(107.8926,203.4209)"
           id="g460"><path
             id="path462"
             style="fill:#284389;fill-opacity:1;fill-rule:nonzero;stroke:none"
             d="m 0,0 c 16.134,4.974 34.076,2.873 50.409,0.01 9.169,-1.607 18.086,-4.064 26.968,-6.811 7.432,-2.298 15.597,-4.181 22.494,-7.798 0.167,-0.088 0.234,0.193 0.09,0.276 C 85.383,-5.94 68.375,-2.11 52.014,0.963 35.24,4.114 16.405,6.274 -0.191,1.092 -0.814,0.897 -0.625,-0.193 0,0" /></g><g
           transform="translate(222.3271,285.6904)"
           id="g464"><path
             id="path466"
             style="fill:#284389;fill-opacity:1;fill-rule:nonzero;stroke:none"
             d="m 0,0 c -12.18,-11.394 -17.18,-30.18 -19.953,-46.031 -2.882,-16.467 -1.966,-36.318 6.345,-51.21 0.112,-0.201 0.399,-0.051 0.295,0.148 -8.106,15.436 -7.657,32.747 -5.432,49.504 2.146,16.187 7.103,35.1 19.563,46.542 C 1.401,-0.512 0.622,0.582 0,0" /></g><g
           transform="translate(172.1211,228.4551)"
           id="g468"><path
             id="path470"
             style="fill:#284389;fill-opacity:1;fill-rule:nonzero;stroke:none"
             d="m 0,0 c 6.529,-6.716 12.852,-13.604 19.129,-20.556 5.746,-6.363 10.914,-14.131 17.404,-19.711 0.324,-0.278 0.713,0.176 0.551,0.507 -3.73,7.586 -11.157,14.092 -16.885,20.193 C 13.79,-12.74 7.094,-6.193 0.633,0.584 0.223,1.015 -0.389,0.399 0,0" /></g><g
           transform="translate(304.748,188.7168)"
           id="g472"><path
             id="path474"
             style="fill:#284389;fill-opacity:1;fill-rule:nonzero;stroke:none"
             d="M 0,0 0.082,-0.1 C 0.102,-0.171 0.197,-0.135 0.168,-0.071 0.127,0.019 0.111,0.061 0.004,0.066 -0.037,0.068 -0.037,0.009 0,0" /></g><g
           transform="translate(272.8535,108.4785)"
           id="g476"><path
             id="path478"
             style="fill:none;stroke:#4a9fdd;stroke-width:3;stroke-linecap:butt;stroke-linejoin:miter;stroke-miterlimit:4;stroke-dasharray:none;stroke-opacity:1"
             d="M 0,0 -56.354,-56.354" /></g></g></g></g></svg>