<?xml version="1.0" standalone="no"?>
<!DOCTYPE svg PUBLIC "-//W3C//DTD SVG 20010904//EN"
 "http://www.w3.org/TR/2001/REC-SVG-20010904/DTD/svg10.dtd">
<svg version="1.0" xmlns="http://www.w3.org/2000/svg"
 width="700.000000pt" height="700.000000pt" viewBox="0 0 700.000000 700.000000"
 preserveAspectRatio="xMidYMid meet">
<metadata>
Created by potrace 1.11, written by Peter Selinger 2001-2013
</metadata>
<g transform="translate(0.000000,700.000000) scale(0.100000,-0.100000)"
fill="#000000" stroke="none">
<path d="M1748 5249 l-1748 -1749 878 -877 c482 -483 1270 -1271 1751 -1752
l873 -873 770 771 c424 424 772 771 773 771 4 0 1 -46 -10 -186 -13 -172 -11
-192 18 -196 69 -12 123 79 144 242 2 19 5 35 6 37 9 8 73 -68 128 -152 59
-89 121 -165 134 -165 6 0 -2 138 -10 175 -20 87 -69 197 -119 271 -31 46
-105 124 -117 124 -5 0 -9 7 -9 16 0 14 9 15 56 10 61 -6 129 -33 187 -73 58
-40 141 -175 188 -306 16 -45 35 -45 60 2 24 44 18 143 -10 200 -12 22 -21 43
-21 47 0 12 75 -8 105 -29 37 -26 84 -75 138 -147 23 -30 57 -70 75 -88 l33
-33 40 23 c93 52 62 182 -73 301 -56 50 -249 158 -327 182 -43 13 -2 23 93 23
63 0 100 -5 121 -16 54 -28 175 -13 175 23 0 8 -4 15 -10 15 -5 0 -10 9 -10
21 0 50 -131 129 -213 129 -40 0 -104 -20 -187 -58 -135 -61 -156 -70 -190
-80 -46 -15 -100 -24 -100 -17 0 11 301 305 313 306 72 7 237 -35 332 -84 69
-36 148 -87 153 -99 2 -4 10 -8 17 -8 11 0 13 12 9 51 -10 101 -81 198 -176
242 -53 24 -59 33 -25 34 12 1 77 3 145 6 67 2 126 7 130 11 12 12 -39 43
-100 62 -38 11 -94 18 -158 18 -55 1 -100 2 -100 3 0 9 135 137 155 147 40 21
175 7 303 -30 106 -30 172 -32 190 -4 11 18 9 21 -13 30 -13 5 -49 29 -79 53
-70 57 -137 80 -221 75 -73 -4 -73 -1 5 32 43 18 75 24 146 25 87 1 113 7 199
45 48 22 145 125 145 155 0 19 2 19 -47 -5 -23 -11 -63 -25 -90 -31 -26 -7
-65 -18 -87 -26 -52 -19 -56 -11 -5 12 81 37 158 149 182 264 12 53 18 61 174
218 l163 163 -1750 1750 c-963 963 -1751 1750 -1753 1749 -1 0 -788 -788
-1749 -1750z m4881 -2168 c-6 -18 -13 -30 -15 -28 -2 2 1 18 7 36 6 18 13 30
15 28 2 -2 -1 -18 -7 -36z m-19 -48 c0 -5 -10 -19 -21 -33 l-21 -25 18 33 c18
32 24 38 24 25z m-40 -66 c0 -2 -10 -12 -22 -23 l-23 -19 19 23 c18 21 26 27
26 19z m-1155 -1761 l17 -31 -20 24 c-11 14 -27 38 -37 55 l-17 31 20 -24 c11
-14 27 -38 37 -55z"/>
</g>
</svg>
